<?xml version="1.0" encoding="UTF-8" standalone="no"?>
<!DOCTYPE svg PUBLIC "-//W3C//DTD SVG 1.1//EN"
 "http://www.w3.org/Graphics/SVG/1.1/DTD/svg11.dtd">
<!-- Generated by graphviz version 14.1.2 (20260124.0452)
 -->
<!-- Title: G Pages: 1 -->
<svg width="402pt" height="988pt"
 viewBox="0.00 0.00 402.00 988.00" xmlns="http://www.w3.org/2000/svg" xmlns:xlink="http://www.w3.org/1999/xlink">
<g id="graph0" class="graph" transform="scale(1 1) rotate(0) translate(4 983.75)">
<title>G</title><style>.edge>path:hover{stroke-width:8}</style>
<polygon fill="white" stroke="none" points="-4,4 -4,-983.75 398.01,-983.75 398.01,4 -4,4"/>
<!-- __init___py -->
<g id="node1" class="node">
<title>__init___py</title><style>.edge>path:hover{stroke-width:8}</style>
<ellipse fill="#924e4e" stroke="black" cx="149.21" cy="-18" rx="37.42" ry="18"/>
<text xml:space="preserve" text-anchor="middle" x="149.21" y="-14.12" font-family="Helvetica,sans-Serif" font-size="10.00" fill="#ffffff">__init__.py</text>
</g>
<!-- app -->
<g id="node2" class="node">
<title>app</title><style>.edge>path:hover{stroke-width:8}</style>
<polygon fill="blue" stroke="black" points="176.21,-145 122.21,-145 122.21,-109 176.21,-109 176.21,-145"/>
<text xml:space="preserve" text-anchor="middle" x="149.21" y="-123.12" font-family="Helvetica,sans-Serif" font-size="10.00" fill="white">app</text>
</g>
<!-- app&#45;&gt;__init___py -->
<g id="edge1" class="edge">
<title>app&#45;&gt;__init___py</title><style>.edge>path:hover{stroke-width:8}</style>
<path fill="none" stroke="black" d="M149.21,-108.81C149.21,-98.44 149.21,-84.96 149.21,-73"/>
</g>
<!-- app_db -->
<g id="node3" class="node">
<title>app_db</title><style>.edge>path:hover{stroke-width:8}</style>
<ellipse fill="#80c040" stroke="black" cx="31.21" cy="-199" rx="27" ry="18"/>
<text xml:space="preserve" text-anchor="middle" x="31.21" y="-195.12" font-family="Helvetica,sans-Serif" font-size="10.00" fill="#000000">app.db</text>
</g>
<!-- app_db&#45;&gt;__init___py -->
<g id="edge2" class="edge">
<title>app_db&#45;&gt;__init___py</title><style>.edge>path:hover{stroke-width:8}</style>
<path fill="none" stroke="black" d="M149.21,-72C149.21,-64.06 149.21,-55.44 149.21,-47.52"/>
<polygon fill="#80c040" stroke="black" points="152.71,-47.7 149.21,-37.7 145.71,-47.7 152.71,-47.7"/>
<path fill="none" stroke="black" d="M44.67,-183.02C60.76,-165.2 88.62,-134.62 113.21,-109 128.88,-92.68 149.21,-95.63 149.21,-73"/>
</g>
<!-- app_db&#45;&gt;app -->
<g id="edge3" class="edge">
<title>app_db&#45;&gt;app</title><style>.edge>path:hover{stroke-width:8}</style>
<path fill="none" stroke="black" d="M50.96,-186.28C67.58,-176.43 91.79,-162.07 112.02,-150.06"/>
<polygon fill="#80c040" stroke="black" points="113.76,-153.1 120.57,-144.99 110.19,-147.08 113.76,-153.1"/>
</g>
<!-- app_pages -->
<g id="node4" class="node">
<title>app_pages</title><style>.edge>path:hover{stroke-width:8}</style>
<polygon fill="blue" stroke="black" points="175.71,-217 114.71,-217 114.71,-181 175.71,-181 175.71,-217"/>
<text xml:space="preserve" text-anchor="middle" x="145.21" y="-195.12" font-family="Helvetica,sans-Serif" font-size="10.00" fill="white">app.pages</text>
</g>
<!-- app_pages&#45;&gt;__init___py -->
<g id="edge4" class="edge">
<title>app_pages&#45;&gt;__init___py</title><style>.edge>path:hover{stroke-width:8}</style>
<path fill="none" stroke="black" d="M204.21,-126C197.45,-92.73 149.21,-106.95 149.21,-73"/>
<path fill="none" stroke="black" d="M174.42,-180.52C191.35,-167.89 208.55,-149.34 204.21,-128"/>
</g>
<!-- app_pages&#45;&gt;app -->
<g id="edge5" class="edge">
<title>app_pages&#45;&gt;app</title><style>.edge>path:hover{stroke-width:8}</style>
<path fill="none" stroke="black" d="M146.2,-180.7C146.62,-173.41 147.11,-164.73 147.58,-156.54"/>
<polygon fill="blue" stroke="black" points="151.07,-156.8 148.15,-146.62 144.08,-156.4 151.07,-156.8"/>
</g>
<!-- app_pages_analysis -->
<g id="node5" class="node">
<title>app_pages_analysis</title><style>.edge>path:hover{stroke-width:8}</style>
<polygon fill="blue" stroke="black" points="201.21,-294.75 147.21,-294.75 147.21,-253 201.21,-253 201.21,-294.75"/>
<text xml:space="preserve" text-anchor="middle" x="174.21" y="-281.25" font-family="Helvetica,sans-Serif" font-size="10.00" fill="white">app.</text>
<text xml:space="preserve" text-anchor="middle" x="174.21" y="-270" font-family="Helvetica,sans-Serif" font-size="10.00" fill="white">pages.</text>
<text xml:space="preserve" text-anchor="middle" x="174.21" y="-258.75" font-family="Helvetica,sans-Serif" font-size="10.00" fill="white">analysis</text>
</g>
<!-- app_pages_analysis&#45;&gt;app_pages -->
<g id="edge6" class="edge">
<title>app_pages_analysis&#45;&gt;app_pages</title><style>.edge>path:hover{stroke-width:8}</style>
<path fill="none" stroke="black" d="M166.13,-252.58C163.09,-244.93 159.58,-236.1 156.31,-227.88"/>
<polygon fill="blue" stroke="black" points="159.58,-226.63 152.63,-218.64 153.07,-229.22 159.58,-226.63"/>
</g>
<!-- flask -->
<g id="node6" class="node">
<title>flask</title><style>.edge>path:hover{stroke-width:8}</style>
<polygon fill="blue" stroke="black" points="201.21,-475.75 147.21,-475.75 147.21,-439.75 201.21,-439.75 201.21,-475.75"/>
<text xml:space="preserve" text-anchor="middle" x="174.21" y="-453.88" font-family="Helvetica,sans-Serif" font-size="10.00" fill="white">flask</text>
</g>
<!-- flask&#45;&gt;__init___py -->
<g id="edge7" class="edge">
<title>flask&#45;&gt;__init___py</title><style>.edge>path:hover{stroke-width:8}</style>
<path fill="none" stroke="black" d="M174.21,-347.75C174.21,-319.27 201.84,-321.97 210.21,-294.75 218.06,-269.24 218.83,-199.92 204.21,-128"/>
</g>
<!-- flask&#45;&gt;app -->
<g id="edge8" class="edge">
<title>flask&#45;&gt;app</title><style>.edge>path:hover{stroke-width:8}</style>
<path fill="none" stroke="black" d="M174.21,-439.33C174.21,-418.15 174.21,-381.33 174.21,-349.75"/>
<path fill="none" stroke="black" d="M119.21,-272.88C105.43,-233.94 91.19,-219.85 105.21,-181 108.81,-171.03 115.19,-161.61 122,-153.55"/>
<polygon fill="blue" stroke="black" points="124.56,-155.94 128.72,-146.2 119.39,-151.22 124.56,-155.94"/>
<path fill="none" stroke="black" d="M174.21,-347.75C174.21,-307.17 130.67,-313.8 119.21,-274.88"/>
</g>
<!-- flask&#45;&gt;app_pages -->
<g id="edge9" class="edge">
<title>flask&#45;&gt;app_pages</title><style>.edge>path:hover{stroke-width:8}</style>
<path fill="none" stroke="black" d="M119.21,-272.88C113.86,-257.74 119.17,-240.85 126.36,-227.14"/>
<polygon fill="blue" stroke="black" points="129.28,-229.07 131.31,-218.67 123.24,-225.54 129.28,-229.07"/>
</g>
<!-- flask&#45;&gt;app_pages_analysis -->
<g id="edge10" class="edge">
<title>flask&#45;&gt;app_pages_analysis</title><style>.edge>path:hover{stroke-width:8}</style>
<path fill="none" stroke="black" d="M174.21,-347.75C174.21,-334.09 174.21,-318.99 174.21,-306.1"/>
<polygon fill="blue" stroke="black" points="177.71,-306.49 174.21,-296.49 170.71,-306.49 177.71,-306.49"/>
</g>
<!-- flask_app -->
<g id="node7" class="node">
<title>flask_app</title><style>.edge>path:hover{stroke-width:8}</style>
<polygon fill="blue" stroke="black" points="221.09,-907.75 165.34,-907.75 165.34,-871.75 221.09,-871.75 221.09,-907.75"/>
<text xml:space="preserve" text-anchor="middle" x="193.21" y="-885.88" font-family="Helvetica,sans-Serif" font-size="10.00" fill="white">flask.app</text>
</g>
<!-- flask_app&#45;&gt;flask -->
<g id="edge11" class="edge">
<title>flask_app&#45;&gt;flask</title><style>.edge>path:hover{stroke-width:8}</style>
<path fill="none" stroke="black" d="M179.93,-871.58C143.9,-823.72 44.83,-683.36 13.21,-547.75 9.58,-532.17 3.83,-524.71 13.21,-511.75 40.96,-473.4 97.41,-462.32 135.53,-459.38"/>
<polygon fill="blue" stroke="black" points="135.43,-462.89 145.21,-458.8 135.02,-455.9 135.43,-462.89"/>
</g>
<!-- flask_ctx -->
<g id="node10" class="node">
<title>flask_ctx</title><style>.edge>path:hover{stroke-width:8}</style>
<polygon fill="blue" stroke="black" points="356.21,-835.75 302.21,-835.75 302.21,-799.75 356.21,-799.75 356.21,-835.75"/>
<text xml:space="preserve" text-anchor="middle" x="329.21" y="-813.88" font-family="Helvetica,sans-Serif" font-size="10.00" fill="white">flask.ctx</text>
</g>
<!-- flask_app&#45;&gt;flask_ctx -->
<g id="edge12" class="edge">
<title>flask_app&#45;&gt;flask_ctx</title><style>.edge>path:hover{stroke-width:8}</style>
<path fill="none" stroke="black" d="M231.6,-868.99C250.44,-859.29 273.05,-847.65 291.77,-838.02"/>
<polygon fill="blue" stroke="black" points="230.03,-865.86 222.74,-873.55 233.23,-872.09 230.03,-865.86"/>
<polygon fill="blue" stroke="black" points="293.36,-841.14 300.65,-833.45 290.16,-834.91 293.36,-841.14"/>
</g>
<!-- flask_globals -->
<g id="node11" class="node">
<title>flask_globals</title><style>.edge>path:hover{stroke-width:8}</style>
<polygon fill="blue" stroke="black" points="267.59,-763.75 196.84,-763.75 196.84,-727.75 267.59,-727.75 267.59,-763.75"/>
<text xml:space="preserve" text-anchor="middle" x="232.21" y="-741.88" font-family="Helvetica,sans-Serif" font-size="10.00" fill="white">flask.globals</text>
</g>
<!-- flask_app&#45;&gt;flask_globals -->
<g id="edge13" class="edge">
<title>flask_app&#45;&gt;flask_globals</title><style>.edge>path:hover{stroke-width:8}</style>
<path fill="none" stroke="black" d="M201.01,-860.35C207.85,-835.45 217.74,-799.46 224.54,-774.69"/>
<polygon fill="blue" stroke="black" points="197.67,-859.31 198.4,-869.88 204.42,-861.16 197.67,-859.31"/>
<polygon fill="blue" stroke="black" points="227.84,-775.89 227.11,-765.32 221.09,-774.04 227.84,-775.89"/>
</g>
<!-- flask_templating -->
<g id="node15" class="node">
<title>flask_templating</title><style>.edge>path:hover{stroke-width:8}</style>
<polygon fill="blue" stroke="black" points="83.71,-547.75 22.71,-547.75 22.71,-511.75 83.71,-511.75 83.71,-547.75"/>
<text xml:space="preserve" text-anchor="middle" x="53.21" y="-531.5" font-family="Helvetica,sans-Serif" font-size="10.00" fill="white">flask.</text>
<text xml:space="preserve" text-anchor="middle" x="53.21" y="-520.25" font-family="Helvetica,sans-Serif" font-size="10.00" fill="white">templating</text>
</g>
<!-- flask_app&#45;&gt;flask_templating -->
<g id="edge14" class="edge">
<title>flask_app&#45;&gt;flask_templating</title><style>.edge>path:hover{stroke-width:8}</style>
<path fill="none" stroke="black" d="M182.43,-861.19C156.36,-794.51 90.1,-625.07 64.01,-558.35"/>
<polygon fill="blue" stroke="black" points="179.01,-862.03 185.91,-870.07 185.53,-859.49 179.01,-862.03"/>
<polygon fill="blue" stroke="black" points="67.35,-557.29 60.45,-549.25 60.83,-559.84 67.35,-557.29"/>
</g>
<!-- flask_blueprints -->
<g id="node8" class="node">
<title>flask_blueprints</title><style>.edge>path:hover{stroke-width:8}</style>
<polygon fill="blue" stroke="black" points="294.21,-547.75 236.21,-547.75 236.21,-511.75 294.21,-511.75 294.21,-547.75"/>
<text xml:space="preserve" text-anchor="middle" x="265.21" y="-531.5" font-family="Helvetica,sans-Serif" font-size="10.00" fill="white">flask.</text>
<text xml:space="preserve" text-anchor="middle" x="265.21" y="-520.25" font-family="Helvetica,sans-Serif" font-size="10.00" fill="white">blueprints</text>
</g>
<!-- flask_blueprints&#45;&gt;flask -->
<g id="edge15" class="edge">
<title>flask_blueprints&#45;&gt;flask</title><style>.edge>path:hover{stroke-width:8}</style>
<path fill="none" stroke="black" d="M242.72,-511.45C231.56,-502.86 217.9,-492.36 205.72,-482.99"/>
<polygon fill="blue" stroke="black" points="208.02,-480.34 197.96,-477.02 203.75,-485.89 208.02,-480.34"/>
</g>
<!-- flask_config -->
<g id="node9" class="node">
<title>flask_config</title><style>.edge>path:hover{stroke-width:8}</style>
<ellipse fill="#53b6b6" stroke="black" cx="141.21" cy="-529.75" rx="39.2" ry="18"/>
<text xml:space="preserve" text-anchor="middle" x="141.21" y="-525.88" font-family="Helvetica,sans-Serif" font-size="10.00" fill="#000000">flask.config</text>
</g>
<!-- flask_config&#45;&gt;flask -->
<g id="edge16" class="edge">
<title>flask_config&#45;&gt;flask</title><style>.edge>path:hover{stroke-width:8}</style>
<path fill="none" stroke="black" d="M149.2,-511.8C152.79,-504.18 157.13,-494.98 161.18,-486.4"/>
<polygon fill="#53b6b6" stroke="black" points="164.32,-487.93 165.42,-477.39 157.99,-484.95 164.32,-487.93"/>
</g>
<!-- flask_ctx&#45;&gt;flask -->
<g id="edge17" class="edge">
<title>flask_ctx&#45;&gt;flask</title><style>.edge>path:hover{stroke-width:8}</style>
<path fill="none" stroke="black" d="M384.21,-744.75C395.66,-682.69 367.74,-663.67 384.21,-602.75"/>
<path fill="none" stroke="black" d="M350.89,-799.52C364.67,-786.74 380.57,-767.92 384.21,-746.75"/>
</g>
<!-- flask_ctx&#45;&gt;flask_globals -->
<g id="edge19" class="edge">
<title>flask_ctx&#45;&gt;flask_globals</title><style>.edge>path:hover{stroke-width:8}</style>
<path fill="none" stroke="black" d="M296.07,-792.83C286.17,-785.69 275.31,-777.85 265.4,-770.7"/>
<polygon fill="blue" stroke="black" points="293.85,-795.55 304.01,-798.56 297.95,-789.87 293.85,-795.55"/>
<polygon fill="blue" stroke="black" points="267.63,-768 257.48,-764.98 263.54,-773.67 267.63,-768"/>
</g>
<!-- flask_globals&#45;&gt;flask -->
<g id="edge20" class="edge">
<title>flask_globals&#45;&gt;flask</title><style>.edge>path:hover{stroke-width:8}</style>
<path fill="none" stroke="black" d="M232.21,-600.75C233.24,-567.88 213.62,-563.19 208.21,-530.75"/>
<path fill="none" stroke="black" d="M232.21,-672.75C234.43,-641.72 231.24,-633.85 232.21,-602.75"/>
</g>
<!-- flask_globals&#45;&gt;flask_blueprints -->
<g id="edge22" class="edge">
<title>flask_globals&#45;&gt;flask_blueprints</title><style>.edge>path:hover{stroke-width:8}</style>
<path fill="none" stroke="black" d="M232.21,-600.75C232.68,-585.64 239.11,-570.29 246.17,-557.84"/>
<polygon fill="blue" stroke="black" points="249.1,-559.76 251.34,-549.41 243.13,-556.1 249.1,-559.76"/>
</g>
<!-- flask_helpers -->
<g id="node12" class="node">
<title>flask_helpers</title><style>.edge>path:hover{stroke-width:8}</style>
<polygon fill="blue" stroke="black" points="203.96,-619.75 132.46,-619.75 132.46,-583.75 203.96,-583.75 203.96,-619.75"/>
<text xml:space="preserve" text-anchor="middle" x="168.21" y="-597.88" font-family="Helvetica,sans-Serif" font-size="10.00" fill="white">flask.helpers</text>
</g>
<!-- flask_globals&#45;&gt;flask_helpers -->
<g id="edge24" class="edge">
<title>flask_globals&#45;&gt;flask_helpers</title><style>.edge>path:hover{stroke-width:8}</style>
<path fill="none" stroke="black" d="M231.53,-727.47C231.13,-713.28 230.93,-692.69 232.21,-674.75"/>
<path fill="none" stroke="black" d="M232.21,-672.75C233.52,-654.39 221.48,-638.71 207.5,-626.88"/>
<polygon fill="blue" stroke="black" points="209.9,-624.31 199.85,-620.95 205.61,-629.84 209.9,-624.31"/>
</g>
<!-- flask_json -->
<g id="node13" class="node">
<title>flask_json</title><style>.edge>path:hover{stroke-width:8}</style>
<polygon fill="blue" stroke="black" points="356.21,-619.75 298.21,-619.75 298.21,-583.75 356.21,-583.75 356.21,-619.75"/>
<text xml:space="preserve" text-anchor="middle" x="327.21" y="-597.88" font-family="Helvetica,sans-Serif" font-size="10.00" fill="white">flask.json</text>
</g>
<!-- flask_globals&#45;&gt;flask_json -->
<g id="edge25" class="edge">
<title>flask_globals&#45;&gt;flask_json</title><style>.edge>path:hover{stroke-width:8}</style>
<path fill="none" stroke="black" d="M232.21,-672.75C234.25,-644.23 262.3,-626 287.39,-615.32"/>
<polygon fill="blue" stroke="black" points="288.45,-618.67 296.48,-611.75 285.89,-612.15 288.45,-618.67"/>
</g>
<!-- flask_globals&#45;&gt;flask_templating -->
<g id="edge26" class="edge">
<title>flask_globals&#45;&gt;flask_templating</title><style>.edge>path:hover{stroke-width:8}</style>
<path fill="none" stroke="black" d="M216.77,-727.6C195.38,-703.73 155.72,-659 123.21,-619.75 105.91,-598.87 86.93,-574.64 73.1,-556.75"/>
<polygon fill="blue" stroke="black" points="76.18,-555 67.3,-549.22 70.63,-559.27 76.18,-555"/>
</g>
<!-- flask_wrappers -->
<g id="node16" class="node">
<title>flask_wrappers</title><style>.edge>path:hover{stroke-width:8}</style>
<polygon fill="blue" stroke="black" points="340.09,-691.75 260.34,-691.75 260.34,-655.75 340.09,-655.75 340.09,-691.75"/>
<text xml:space="preserve" text-anchor="middle" x="300.21" y="-669.88" font-family="Helvetica,sans-Serif" font-size="10.00" fill="white">flask.wrappers</text>
</g>
<!-- flask_globals&#45;&gt;flask_wrappers -->
<g id="edge27" class="edge">
<title>flask_globals&#45;&gt;flask_wrappers</title><style>.edge>path:hover{stroke-width:8}</style>
<path fill="none" stroke="black" d="M256.85,-719.39C262.96,-713.1 269.51,-706.36 275.62,-700.07"/>
<polygon fill="blue" stroke="black" points="254.53,-716.75 250.08,-726.36 259.55,-721.63 254.53,-716.75"/>
<polygon fill="blue" stroke="black" points="278.08,-702.55 282.54,-692.94 273.06,-697.67 278.08,-702.55"/>
</g>
<!-- flask_helpers&#45;&gt;flask -->
<g id="edge28" class="edge">
<title>flask_helpers&#45;&gt;flask</title><style>.edge>path:hover{stroke-width:8}</style>
<path fill="none" stroke="black" d="M208.21,-528.75C205.71,-513.76 198.84,-498.42 191.93,-485.94"/>
<polygon fill="blue" stroke="black" points="195.05,-484.36 186.97,-477.51 189.02,-487.9 195.05,-484.36"/>
<path fill="none" stroke="black" d="M186.64,-583.41C198.64,-570.02 211.5,-550.49 208.21,-530.75"/>
</g>
<!-- flask_helpers&#45;&gt;flask_app -->
<g id="edge29" class="edge">
<title>flask_helpers&#45;&gt;flask_app</title><style>.edge>path:hover{stroke-width:8}</style>
<path fill="none" stroke="black" d="M169.72,-619.98C173.87,-667.49 185.52,-800.72 190.69,-859.85"/>
<polygon fill="blue" stroke="black" points="187.2,-860.12 191.55,-869.78 194.17,-859.52 187.2,-860.12"/>
</g>
<!-- flask_helpers&#45;&gt;flask_blueprints -->
<g id="edge30" class="edge">
<title>flask_helpers&#45;&gt;flask_blueprints</title><style>.edge>path:hover{stroke-width:8}</style>
<path fill="none" stroke="black" d="M192.19,-583.45C204.2,-574.78 218.93,-564.15 232.01,-554.71"/>
<polygon fill="blue" stroke="black" points="233.89,-557.67 239.95,-548.98 229.79,-552 233.89,-557.67"/>
</g>
<!-- flask_helpers&#45;&gt;flask_templating -->
<g id="edge31" class="edge">
<title>flask_helpers&#45;&gt;flask_templating</title><style>.edge>path:hover{stroke-width:8}</style>
<path fill="none" stroke="black" d="M139.49,-583.27C124.83,-574.35 106.82,-563.38 91.05,-553.78"/>
<polygon fill="blue" stroke="black" points="93.22,-551.01 82.86,-548.8 89.58,-556.99 93.22,-551.01"/>
</g>
<!-- flask_json&#45;&gt;flask -->
<g id="edge33" class="edge">
<title>flask_json&#45;&gt;flask</title><style>.edge>path:hover{stroke-width:8}</style>
<path fill="none" stroke="black" d="M356.6,-583.49C374.97,-570.29 393.53,-550.96 384.21,-530.75"/>
<path fill="none" stroke="black" d="M384.21,-528.75C369.54,-496.91 269.14,-474.9 212.64,-464.88"/>
<polygon fill="blue" stroke="black" points="213.57,-461.49 203.12,-463.24 212.38,-468.39 213.57,-461.49"/>
</g>
<!-- flask_signals -->
<g id="node14" class="node">
<title>flask_signals</title><style>.edge>path:hover{stroke-width:8}</style>
<ellipse fill="#22e7e7" stroke="black" cx="193.21" cy="-961.75" rx="41.86" ry="18"/>
<text xml:space="preserve" text-anchor="middle" x="193.21" y="-957.88" font-family="Helvetica,sans-Serif" font-size="10.00" fill="#000000">flask.signals</text>
</g>
<!-- flask_signals&#45;&gt;flask -->
<g id="edge35" class="edge">
<title>flask_signals&#45;&gt;flask</title><style>.edge>path:hover{stroke-width:8}</style>
<path fill="none" stroke="black" d="M384.21,-888.75C410.1,-831.19 373.51,-808.95 384.21,-746.75"/>
</g>
<!-- flask_signals&#45;&gt;flask_app -->
<g id="edge36" class="edge">
<title>flask_signals&#45;&gt;flask_app</title><style>.edge>path:hover{stroke-width:8}</style>
<path fill="none" stroke="black" d="M193.21,-943.45C193.21,-936.16 193.21,-927.48 193.21,-919.29"/>
<polygon fill="#22e7e7" stroke="black" points="196.71,-919.37 193.21,-909.37 189.71,-919.37 196.71,-919.37"/>
</g>
<!-- flask_signals&#45;&gt;flask_ctx -->
<g id="edge37" class="edge">
<title>flask_signals&#45;&gt;flask_ctx</title><style>.edge>path:hover{stroke-width:8}</style>
<path fill="none" stroke="black" d="M384.21,-888.75C391.9,-871.67 379.97,-855.07 365.29,-842.32"/>
<polygon fill="#22e7e7" stroke="black" points="367.64,-839.72 357.64,-836.23 363.28,-845.2 367.64,-839.72"/>
<path fill="none" stroke="black" d="M235.48,-960.87C283.88,-958.33 359.65,-945.34 384.21,-890.75"/>
</g>
<!-- flask_signals&#45;&gt;flask_helpers -->
<g id="edge38" class="edge">
<title>flask_signals&#45;&gt;flask_helpers</title><style>.edge>path:hover{stroke-width:8}</style>
<path fill="none" stroke="black" d="M28.21,-744.75C14.51,-689.45 76.27,-646.57 122.14,-622.99"/>
<polygon fill="#22e7e7" stroke="black" points="123.48,-626.24 130.88,-618.65 120.37,-619.97 123.48,-626.24"/>
</g>
<!-- flask_signals&#45;&gt;flask_templating -->
<g id="edge39" class="edge">
<title>flask_signals&#45;&gt;flask_templating</title><style>.edge>path:hover{stroke-width:8}</style>
<path fill="none" stroke="black" d="M172.49,-945.69C131.68,-914.3 43.53,-837.18 28.21,-746.75"/>
<path fill="none" stroke="black" d="M28.21,-744.75C5.31,-681.04 27.28,-600.46 42.13,-558.7"/>
<polygon fill="#22e7e7" stroke="black" points="45.38,-560.01 45.56,-549.41 38.81,-557.58 45.38,-560.01"/>
</g>
<!-- flask_templating&#45;&gt;flask -->
<g id="edge40" class="edge">
<title>flask_templating&#45;&gt;flask</title><style>.edge>path:hover{stroke-width:8}</style>
<path fill="none" stroke="black" d="M83.43,-511.27C99.7,-501.86 119.9,-490.17 137.12,-480.21"/>
<polygon fill="blue" stroke="black" points="138.64,-483.37 145.54,-475.34 135.13,-477.31 138.64,-483.37"/>
</g>
<!-- flask_wrappers&#45;&gt;flask -->
<g id="edge42" class="edge">
<title>flask_wrappers&#45;&gt;flask</title><style>.edge>path:hover{stroke-width:8}</style>
<path fill="none" stroke="black" d="M337.46,-655.34C356.87,-643.71 377.87,-626.21 384.21,-602.75"/>
<path fill="none" stroke="black" d="M384.21,-600.75C392.33,-570.72 397.23,-559.01 384.21,-530.75"/>
</g>
<!-- flask_wrappers&#45;&gt;flask_app -->
<g id="edge43" class="edge">
<title>flask_wrappers&#45;&gt;flask_app</title><style>.edge>path:hover{stroke-width:8}</style>
<path fill="none" stroke="black" d="M298.41,-691.99C297.35,-703.27 296.09,-718.62 295.51,-733.52"/>
<polygon fill="blue" stroke="black" points="292.02,-733.15 295.25,-743.24 299.02,-733.33 292.02,-733.15"/>
<path fill="none" stroke="black" d="M295.21,-746.75C295.76,-800.02 247.62,-846.99 217.29,-871.26"/>
</g>
<!-- flask_wrappers&#45;&gt;flask_blueprints -->
<g id="edge44" class="edge">
<title>flask_wrappers&#45;&gt;flask_blueprints</title><style>.edge>path:hover{stroke-width:8}</style>
<path fill="none" stroke="black" d="M295.92,-655.34C289.98,-631.25 279.2,-587.5 272.12,-558.78"/>
<polygon fill="blue" stroke="black" points="275.58,-558.2 269.79,-549.33 268.79,-559.88 275.58,-558.2"/>
</g>
<!-- flask_wrappers&#45;&gt;flask_ctx -->
<g id="edge45" class="edge">
<title>flask_wrappers&#45;&gt;flask_ctx</title><style>.edge>path:hover{stroke-width:8}</style>
<path fill="none" stroke="black" d="M295.21,-746.75C295.41,-766.2 306.15,-785.92 315.5,-799.45"/>
</g>
<!-- flask_wrappers&#45;&gt;flask_helpers -->
<g id="edge47" class="edge">
<title>flask_wrappers&#45;&gt;flask_helpers</title><style>.edge>path:hover{stroke-width:8}</style>
<path fill="none" stroke="black" d="M257.1,-649.89C242.21,-641.99 225.54,-633.15 210.7,-625.28"/>
<polygon fill="blue" stroke="black" points="255.43,-652.96 265.91,-654.56 258.71,-646.78 255.43,-652.96"/>
<polygon fill="blue" stroke="black" points="212.57,-622.31 202.1,-620.72 209.29,-628.5 212.57,-622.31"/>
</g>
<!-- flask_wrappers&#45;&gt;flask_json -->
<g id="edge48" class="edge">
<title>flask_wrappers&#45;&gt;flask_json</title><style>.edge>path:hover{stroke-width:8}</style>
<path fill="none" stroke="black" d="M310.97,-644.85C312.81,-640.09 314.71,-635.16 316.54,-630.41"/>
<polygon fill="blue" stroke="black" points="307.76,-643.44 307.43,-654.03 314.3,-645.96 307.76,-643.44"/>
<polygon fill="blue" stroke="black" points="319.74,-631.86 320.07,-621.27 313.21,-629.34 319.74,-631.86"/>
</g>
<!-- psycopg -->
<g id="node17" class="node">
<title>psycopg</title><style>.edge>path:hover{stroke-width:8}</style>
<ellipse fill="#7f40c0" stroke="black" cx="31.21" cy="-348.75" rx="31.21" ry="18"/>
<text xml:space="preserve" text-anchor="middle" x="31.21" y="-344.88" font-family="Helvetica,sans-Serif" font-size="10.00" fill="#ffffff">psycopg</text>
</g>
<!-- psycopg&#45;&gt;app_db -->
<g id="edge49" class="edge">
<title>psycopg&#45;&gt;app_db</title><style>.edge>path:hover{stroke-width:8}</style>
<path fill="none" stroke="black" d="M31.21,-330.51C31.21,-305.49 31.21,-258.8 31.21,-228.58"/>
<polygon fill="#7f40c0" stroke="black" points="34.71,-228.64 31.21,-218.64 27.71,-228.64 34.71,-228.64"/>
</g>
</g>
</svg>
